<mxfile host="app.diagrams.net" modified="2022-11-16T03:21:53.582Z" agent="5.0 (Macintosh; Intel Mac OS X 10_15_7) AppleWebKit/605.1.15 (KHTML, like Gecko) Version/16.1 Safari/605.1.15" etag="O80R0SxwKbSpwyyJSwJR" version="20.5.3" type="github">
  <diagram id="2eSIhio7ax-TwMTem3YI" name="PÃ¡gina-1">
    <mxGraphModel dx="830" dy="1704" grid="1" gridSize="10" guides="1" tooltips="1" connect="1" arrows="1" fold="1" page="1" pageScale="1" pageWidth="827" pageHeight="1169" math="0" shadow="0">
      <root>
        <mxCell id="0" />
        <mxCell id="1" parent="0" />
        <mxCell id="80YEqTwlPCmAUWT3thk7-24" value="" style="verticalLabelPosition=bottom;verticalAlign=top;html=1;shape=mxgraph.basic.patternFillRect;fillStyle=diag;step=5;fillStrokeWidth=0.2;fillStrokeColor=#dddddd;strokeColor=default;strokeWidth=1;fillColor=none;" parent="1" vertex="1">
          <mxGeometry x="120" y="-280" width="760" height="920" as="geometry" />
        </mxCell>
        <mxCell id="80YEqTwlPCmAUWT3thk7-1" value="AWS Cloud" style="points=[[0,0],[0.25,0],[0.5,0],[0.75,0],[1,0],[1,0.25],[1,0.5],[1,0.75],[1,1],[0.75,1],[0.5,1],[0.25,1],[0,1],[0,0.75],[0,0.5],[0,0.25]];outlineConnect=0;gradientColor=none;html=1;whiteSpace=wrap;fontSize=12;fontStyle=0;container=1;pointerEvents=0;collapsible=0;recursiveResize=0;shape=mxgraph.aws4.group;grIcon=mxgraph.aws4.group_aws_cloud_alt;strokeColor=#232F3E;fillColor=none;verticalAlign=top;align=left;spacingLeft=30;fontColor=#232F3E;dashed=0;" parent="1" vertex="1">
          <mxGeometry x="160" y="-80" width="680" height="680" as="geometry" />
        </mxCell>
        <mxCell id="80YEqTwlPCmAUWT3thk7-2" value="VPC" style="points=[[0,0],[0.25,0],[0.5,0],[0.75,0],[1,0],[1,0.25],[1,0.5],[1,0.75],[1,1],[0.75,1],[0.5,1],[0.25,1],[0,1],[0,0.75],[0,0.5],[0,0.25]];outlineConnect=0;gradientColor=none;html=1;whiteSpace=wrap;fontSize=12;fontStyle=0;container=1;pointerEvents=0;collapsible=0;recursiveResize=0;shape=mxgraph.aws4.group;grIcon=mxgraph.aws4.group_vpc;strokeColor=#248814;fillColor=none;verticalAlign=top;align=left;spacingLeft=30;fontColor=#AAB7B8;dashed=0;" parent="80YEqTwlPCmAUWT3thk7-1" vertex="1">
          <mxGeometry x="40" y="120" width="520" height="520" as="geometry" />
        </mxCell>
        <mxCell id="80YEqTwlPCmAUWT3thk7-7" value="" style="sketch=0;points=[[0,0,0],[0.25,0,0],[0.5,0,0],[0.75,0,0],[1,0,0],[0,1,0],[0.25,1,0],[0.5,1,0],[0.75,1,0],[1,1,0],[0,0.25,0],[0,0.5,0],[0,0.75,0],[1,0.25,0],[1,0.5,0],[1,0.75,0]];outlineConnect=0;fontColor=#232F3E;gradientColor=#F78E04;gradientDirection=north;fillColor=#D05C17;strokeColor=#ffffff;dashed=0;verticalLabelPosition=bottom;verticalAlign=top;align=center;html=1;fontSize=12;fontStyle=0;aspect=fixed;shape=mxgraph.aws4.resourceIcon;resIcon=mxgraph.aws4.lambda;" parent="80YEqTwlPCmAUWT3thk7-2" vertex="1">
          <mxGeometry x="280" y="160" width="78" height="78" as="geometry" />
        </mxCell>
        <mxCell id="80YEqTwlPCmAUWT3thk7-8" value="" style="sketch=0;points=[[0,0,0],[0.25,0,0],[0.5,0,0],[0.75,0,0],[1,0,0],[0,1,0],[0.25,1,0],[0.5,1,0],[0.75,1,0],[1,1,0],[0,0.25,0],[0,0.5,0],[0,0.75,0],[1,0.25,0],[1,0.5,0],[1,0.75,0]];outlineConnect=0;fontColor=#232F3E;gradientColor=#945DF2;gradientDirection=north;fillColor=#5A30B5;strokeColor=#ffffff;dashed=0;verticalLabelPosition=bottom;verticalAlign=top;align=center;html=1;fontSize=12;fontStyle=0;aspect=fixed;shape=mxgraph.aws4.resourceIcon;resIcon=mxgraph.aws4.managed_streaming_for_kafka;" parent="80YEqTwlPCmAUWT3thk7-2" vertex="1">
          <mxGeometry x="160" y="280" width="78" height="78" as="geometry" />
        </mxCell>
        <mxCell id="80YEqTwlPCmAUWT3thk7-9" value="" style="sketch=0;points=[[0,0,0],[0.25,0,0],[0.5,0,0],[0.75,0,0],[1,0,0],[0,1,0],[0.25,1,0],[0.5,1,0],[0.75,1,0],[1,1,0],[0,0.25,0],[0,0.5,0],[0,0.75,0],[1,0.25,0],[1,0.5,0],[1,0.75,0]];outlineConnect=0;fontColor=#232F3E;gradientColor=#4D72F3;gradientDirection=north;fillColor=#3334B9;strokeColor=#ffffff;dashed=0;verticalLabelPosition=bottom;verticalAlign=top;align=center;html=1;fontSize=12;fontStyle=0;aspect=fixed;shape=mxgraph.aws4.resourceIcon;resIcon=mxgraph.aws4.documentdb_with_mongodb_compatibility;" parent="80YEqTwlPCmAUWT3thk7-2" vertex="1">
          <mxGeometry x="40" y="400" width="78" height="78" as="geometry" />
        </mxCell>
        <mxCell id="aj8fw83w1wCWJxkwPdOt-13" style="edgeStyle=orthogonalEdgeStyle;rounded=0;orthogonalLoop=1;jettySize=auto;html=1;entryX=0.211;entryY=0.786;entryDx=0;entryDy=0;entryPerimeter=0;fontSize=20;startArrow=block;endArrow=none;endFill=0;" edge="1" parent="80YEqTwlPCmAUWT3thk7-2">
          <mxGeometry relative="1" as="geometry">
            <mxPoint x="280" y="195.88" as="sourcePoint" />
            <mxPoint x="200.3599999999999" y="279.9999999999999" as="targetPoint" />
            <Array as="points">
              <mxPoint x="200" y="195.88" />
            </Array>
          </mxGeometry>
        </mxCell>
        <mxCell id="aj8fw83w1wCWJxkwPdOt-14" style="edgeStyle=orthogonalEdgeStyle;rounded=0;orthogonalLoop=1;jettySize=auto;html=1;entryX=0.211;entryY=0.786;entryDx=0;entryDy=0;entryPerimeter=0;fontSize=20;startArrow=block;endArrow=none;endFill=0;" edge="1" parent="80YEqTwlPCmAUWT3thk7-2">
          <mxGeometry relative="1" as="geometry">
            <mxPoint x="399.64" y="75.88" as="sourcePoint" />
            <mxPoint x="319.9999999999999" y="159.9999999999999" as="targetPoint" />
            <Array as="points">
              <mxPoint x="319.64" y="75.88" />
            </Array>
          </mxGeometry>
        </mxCell>
        <mxCell id="aj8fw83w1wCWJxkwPdOt-18" style="edgeStyle=orthogonalEdgeStyle;rounded=0;orthogonalLoop=1;jettySize=auto;html=1;entryX=0.845;entryY=0.35;entryDx=0;entryDy=0;entryPerimeter=0;fontSize=20;startArrow=classic;startFill=1;endArrow=none;endFill=0;" edge="1" parent="80YEqTwlPCmAUWT3thk7-2">
          <mxGeometry relative="1" as="geometry">
            <mxPoint x="358" y="198" as="sourcePoint" />
            <mxPoint x="440.1999999999998" y="120" as="targetPoint" />
            <Array as="points">
              <mxPoint x="440" y="198" />
            </Array>
          </mxGeometry>
        </mxCell>
        <mxCell id="aj8fw83w1wCWJxkwPdOt-19" style="edgeStyle=orthogonalEdgeStyle;rounded=0;orthogonalLoop=1;jettySize=auto;html=1;entryX=0.845;entryY=0.35;entryDx=0;entryDy=0;entryPerimeter=0;fontSize=20;startArrow=classic;startFill=1;endArrow=none;endFill=0;" edge="1" parent="80YEqTwlPCmAUWT3thk7-2">
          <mxGeometry relative="1" as="geometry">
            <mxPoint x="238" y="316" as="sourcePoint" />
            <mxPoint x="320.1999999999998" y="238" as="targetPoint" />
            <Array as="points">
              <mxPoint x="320" y="316" />
            </Array>
          </mxGeometry>
        </mxCell>
        <mxCell id="aj8fw83w1wCWJxkwPdOt-20" style="edgeStyle=orthogonalEdgeStyle;rounded=0;orthogonalLoop=1;jettySize=auto;html=1;entryX=0.845;entryY=0.35;entryDx=0;entryDy=0;entryPerimeter=0;fontSize=20;startArrow=classic;startFill=1;endArrow=none;endFill=0;" edge="1" parent="80YEqTwlPCmAUWT3thk7-2">
          <mxGeometry relative="1" as="geometry">
            <mxPoint x="118" y="436" as="sourcePoint" />
            <mxPoint x="200.19999999999982" y="358" as="targetPoint" />
            <Array as="points">
              <mxPoint x="200" y="436" />
            </Array>
          </mxGeometry>
        </mxCell>
        <mxCell id="aj8fw83w1wCWJxkwPdOt-1" value="" style="shape=image;imageAspect=0;aspect=fixed;verticalLabelPosition=bottom;verticalAlign=top;strokeColor=default;strokeWidth=1;fontSize=20;fillColor=none;image=https://cdn.cdnlogo.com/logos/r/32/rabbitmq.svg;" vertex="1" parent="80YEqTwlPCmAUWT3thk7-1">
          <mxGeometry x="430" y="160" width="90" height="90" as="geometry" />
        </mxCell>
        <mxCell id="aj8fw83w1wCWJxkwPdOt-3" style="edgeStyle=orthogonalEdgeStyle;rounded=0;orthogonalLoop=1;jettySize=auto;html=1;entryX=0.841;entryY=0.261;entryDx=0;entryDy=0;entryPerimeter=0;fontSize=20;startArrow=block;" edge="1" parent="1" source="80YEqTwlPCmAUWT3thk7-20" target="80YEqTwlPCmAUWT3thk7-24">
          <mxGeometry relative="1" as="geometry" />
        </mxCell>
        <mxCell id="80YEqTwlPCmAUWT3thk7-20" value="users" style="sketch=0;outlineConnect=0;gradientColor=none;fontColor=#545B64;strokeColor=none;fillColor=#879196;dashed=0;verticalLabelPosition=bottom;verticalAlign=top;align=center;html=1;fontSize=20;fontStyle=0;aspect=fixed;shape=mxgraph.aws4.illustration_users;pointerEvents=1;strokeWidth=1;" parent="1" vertex="1">
          <mxGeometry x="709" y="-250" width="100" height="100" as="geometry" />
        </mxCell>
        <mxCell id="80YEqTwlPCmAUWT3thk7-4" value="" style="sketch=0;points=[[0,0,0],[0.25,0,0],[0.5,0,0],[0.75,0,0],[1,0,0],[0,1,0],[0.25,1,0],[0.5,1,0],[0.75,1,0],[1,1,0],[0,0.25,0],[0,0.5,0],[0,0.75,0],[1,0.25,0],[1,0.5,0],[1,0.75,0]];outlineConnect=0;fontColor=#232F3E;gradientColor=#945DF2;gradientDirection=north;fillColor=#5A30B5;strokeColor=#ffffff;dashed=0;verticalLabelPosition=bottom;verticalAlign=top;align=center;html=1;fontSize=12;fontStyle=0;aspect=fixed;shape=mxgraph.aws4.resourceIcon;resIcon=mxgraph.aws4.api_gateway;" parent="1" vertex="1">
          <mxGeometry x="720" y="-38" width="78" height="78" as="geometry" />
        </mxCell>
        <mxCell id="aj8fw83w1wCWJxkwPdOt-6" style="edgeStyle=orthogonalEdgeStyle;rounded=0;orthogonalLoop=1;jettySize=auto;html=1;entryX=0.211;entryY=0.786;entryDx=0;entryDy=0;entryPerimeter=0;fontSize=20;startArrow=block;endArrow=none;endFill=0;" edge="1" parent="1" source="80YEqTwlPCmAUWT3thk7-8" target="80YEqTwlPCmAUWT3thk7-24">
          <mxGeometry relative="1" as="geometry">
            <Array as="points">
              <mxPoint x="280" y="359" />
            </Array>
          </mxGeometry>
        </mxCell>
        <mxCell id="aj8fw83w1wCWJxkwPdOt-15" style="edgeStyle=orthogonalEdgeStyle;rounded=0;orthogonalLoop=1;jettySize=auto;html=1;fontSize=20;startArrow=block;endArrow=none;endFill=0;" edge="1" parent="1" target="aj8fw83w1wCWJxkwPdOt-1">
          <mxGeometry relative="1" as="geometry">
            <mxPoint x="720" as="sourcePoint" />
            <mxPoint x="640.3599999999999" y="84.11999999999989" as="targetPoint" />
            <Array as="points">
              <mxPoint x="640" />
            </Array>
          </mxGeometry>
        </mxCell>
        <mxCell id="aj8fw83w1wCWJxkwPdOt-17" style="edgeStyle=orthogonalEdgeStyle;rounded=0;orthogonalLoop=1;jettySize=auto;html=1;entryX=0.845;entryY=0.35;entryDx=0;entryDy=0;entryPerimeter=0;fontSize=20;startArrow=classic;startFill=1;endArrow=none;endFill=0;" edge="1" parent="1" source="aj8fw83w1wCWJxkwPdOt-1" target="80YEqTwlPCmAUWT3thk7-24">
          <mxGeometry relative="1" as="geometry">
            <Array as="points">
              <mxPoint x="762" y="120" />
            </Array>
          </mxGeometry>
        </mxCell>
      </root>
    </mxGraphModel>
  </diagram>
</mxfile>
